<svg width="116" height="29" viewBox="0 0 116 29" fill="none" xmlns="http://www.w3.org/2000/svg">
<g id="nextfit-estudio-logo 1">
<path id="Vector" fill-rule="evenodd" clip-rule="evenodd" d="M2.94207 23.6026V3.42175C2.94032 3.38944 2.94816 3.35735 2.96456 3.32969C2.98096 3.30204 3.00515 3.28013 3.03394 3.26685C3.06273 3.25358 3.09478 3.24955 3.12584 3.2553C3.15691 3.26106 3.18555 3.27633 3.20798 3.2991L14.1768 14.5624C15.5496 15.9047 17.7001 13.9185 16.2243 12.3854L4.70041 0.621262C2.62796 -0.945921 -0.0244983 0.667258 0.0037547 3.06232V23.9093C-0.0394558 24.8019 0.292932 25.5054 0.86464 26.1374C1.74547 27.1084 3.50713 27.4456 4.86826 26.2805L8.69073 22.3625C9.21923 21.8753 9.2641 20.8805 8.72064 20.2979C8.46235 20.0235 8.11488 19.8557 7.744 19.8262C7.37312 19.7967 7.00455 19.9076 6.70803 20.1378L3.22792 23.7151C3.20527 23.7392 3.17618 23.756 3.14429 23.7632C3.11241 23.7705 3.07913 23.768 3.04863 23.756C3.01813 23.744 2.99176 23.7231 2.9728 23.6958C2.95385 23.6685 2.94316 23.6361 2.94207 23.6026ZM20.4907 1.54624V23.6043C20.4917 23.6362 20.4835 23.6676 20.467 23.6946C20.4505 23.7216 20.4266 23.7429 20.3982 23.7559C20.3699 23.7689 20.3384 23.7729 20.3078 23.7675C20.2772 23.762 20.2488 23.7473 20.2264 23.7253L9.22435 12.4654C7.91142 11.1197 5.75421 13.1008 7.23002 14.6339L18.7307 26.4048C20.8031 27.972 23.4556 26.3588 23.4273 23.9638L23.4622 1.54624C23.414 -0.351417 20.7067 -0.625673 20.4907 1.54624Z" fill="#8323A0"/>
<g id="Group 77">
<path id="Vector_2" fill-rule="evenodd" clip-rule="evenodd" d="M81.9663 9.8702H77.6021V18.9854H75.6659V9.8702L71.2917 9.88212V7.89929L81.9663 7.88737V9.8702Z" fill="#8323A0"/>
<path id="Vector_3" fill-rule="evenodd" clip-rule="evenodd" d="M64.0075 11.8496L66.9624 7.88737H69.3556L65.1958 13.4509L69.3274 18.9854H66.9491L64.0075 15.0538L61.0825 18.9854H58.6959L62.8225 13.4509L58.6826 7.88737H61.0559L64.0075 11.8496Z" fill="#8323A0"/>
<path id="Vector_4" fill-rule="evenodd" clip-rule="evenodd" d="M56.7496 18.9854H48.7856C48.4884 18.9799 48.1936 18.9311 47.9098 18.8406C47.5739 18.7388 47.262 18.5672 46.9935 18.3366C46.7251 18.106 46.5057 17.8212 46.3492 17.5C46.156 17.0961 46.0625 16.6499 46.0766 16.2003V8.89072C46.0759 8.75703 46.1007 8.62451 46.1498 8.50063C46.1972 8.381 46.2672 8.27216 46.3558 8.18038C46.4434 8.08864 46.5479 8.01567 46.6633 7.96574C46.787 7.91528 46.9191 7.88983 47.0522 7.89079H56.7496V9.88213H48.0095V16.2088C47.997 16.3178 48.0089 16.4282 48.0443 16.5318C48.0797 16.6353 48.1376 16.7293 48.2137 16.8064C48.2898 16.8836 48.3821 16.942 48.4834 16.9772C48.5848 17.0123 48.6927 17.0234 48.7989 17.0094H56.7496V18.9854Z" fill="#8323A0"/>
<path id="Vector_5" d="M54.8085 12.514H49.949V14.5121H54.8085V12.514Z" fill="#8323A0"/>
<path id="Vector_6" fill-rule="evenodd" clip-rule="evenodd" d="M44.1355 18.1388C44.1366 18.2754 44.1094 18.4107 44.0557 18.5357C44.0068 18.654 43.9363 18.7615 43.848 18.8526C43.7588 18.9426 43.6532 19.0138 43.5372 19.0621C43.4172 19.1135 43.2883 19.1395 43.1583 19.1387C43.0349 19.1382 42.9127 19.1146 42.7976 19.0689C42.671 19.0237 42.557 18.9477 42.4653 18.8475L35.392 11.2773V18.9854H33.4625V8.8873C33.4596 8.68994 33.5178 8.49672 33.6287 8.33538C33.7342 8.17269 33.883 8.04441 34.0575 7.96573C34.2357 7.88807 34.4328 7.86787 34.6225 7.90781C34.8129 7.94379 34.9874 8.04035 35.1211 8.18377L42.1944 15.7505V7.88737H44.1355V18.1388Z" fill="#8323A0"/>
<path id="Vector_7" fill-rule="evenodd" clip-rule="evenodd" d="M115.074 9.91278H110.753V18.9854H108.797V9.91278H104.476V7.9061H115.082V9.91278H115.074ZM98.5807 9.91278L89.7375 9.90256V18.9752H87.7764V8.90774C87.776 8.77211 87.802 8.63776 87.8528 8.51253C87.9002 8.39137 87.9702 8.28085 88.0589 8.18717C88.1485 8.09439 88.2553 8.02085 88.373 7.97083C88.497 7.91915 88.6297 7.8931 88.7636 7.89418L98.5807 7.9061V9.91278ZM96.5115 14.8528V12.8444H91.652V14.8426L96.5115 14.8528ZM102.506 18.9957H100.555V7.89929H102.506V18.9957Z" fill="#8323A0"/>
</g>
</g>
</svg>
